<svg width="20" height="20" viewBox="0 0 20 20" fill="none" xmlns="http://www.w3.org/2000/svg">
<g clip-path="url(#clip0_1_611)">
<path d="M17.0711 2.92891C15.1823 1.0402 12.6711 0 10 0C7.32891 0 4.8177 1.0402 2.92891 2.92891C1.0402 4.8177 0 7.32891 0 10C0 12.6711 1.0402 15.1823 2.92891 17.0711C4.8177 18.9598 7.32891 20 10 20C12.6711 20 15.1823 18.9598 17.0711 17.0711C18.9598 15.1823 20 12.6711 20 10C20 7.32891 18.9598 4.8177 17.0711 2.92891ZM10 18.8281C5.13215 18.8281 1.17188 14.8679 1.17188 10C1.17188 5.13215 5.13215 1.17188 10 1.17188C14.8679 1.17188 18.8281 5.13215 18.8281 10C18.8281 14.8679 14.8679 18.8281 10 18.8281Z" fill="#AFB2B7"/>
<path d="M10 3.125C8.81535 3.125 7.85156 4.08879 7.85156 5.27344C7.85156 6.45809 8.81535 7.42188 10 7.42188C11.1846 7.42188 12.1484 6.45809 12.1484 5.27344C12.1484 4.08879 11.1846 3.125 10 3.125ZM10 6.25C9.46152 6.25 9.02344 5.81191 9.02344 5.27344C9.02344 4.73496 9.46152 4.29688 10 4.29688C10.5385 4.29688 10.9766 4.73496 10.9766 5.27344C10.9766 5.81191 10.5385 6.25 10 6.25Z" fill="#AFB2B7"/>
<path d="M11.9531 15.625V8.59375H7.26562V9.76562H8.04688V15.625H7.26562V16.7969H12.7344V15.625H11.9531ZM10.7812 15.625H9.21875V9.76562H10.7812V15.625Z" fill="#AFB2B7"/>
</g>
<defs>
<clipPath id="clip0_1_611">
<rect width="20" height="20" fill="white"/>
</clipPath>
</defs>
</svg>
