<svg width="24" height="25" viewBox="0 0 24 25" fill="none" xmlns="http://www.w3.org/2000/svg">
<path fill-rule="evenodd" clip-rule="evenodd" d="M3.50083 14.7871V14.5681C3.53295 13.9202 3.7406 13.2925 4.10236 12.7496C4.7045 12.0975 5.1167 11.2983 5.29571 10.436C5.29571 9.7695 5.29571 9.0935 5.35393 8.42703C5.65469 5.21842 8.82728 3 11.9611 3H12.0387C15.1725 3 18.345 5.21842 18.6555 8.42703C18.7137 9.0935 18.6555 9.7695 18.704 10.436C18.8854 11.3003 19.2972 12.1019 19.8974 12.7591C20.2618 13.2972 20.4698 13.9227 20.4989 14.5681V14.7776C20.5206 15.648 20.2208 16.4968 19.6548 17.1674C18.907 17.9515 17.8921 18.4393 16.8024 18.5384C13.607 18.8812 10.383 18.8812 7.18762 18.5384C6.09914 18.435 5.08576 17.9479 4.33521 17.1674C3.778 16.4963 3.48224 15.6526 3.50083 14.7871Z" stroke="#AFB2B7" stroke-width="1.5" stroke-linecap="round" stroke-linejoin="round"/>
<path d="M9.55493 21.8518C10.0542 22.4784 10.7874 22.884 11.5922 22.9787C12.3971 23.0734 13.2072 22.8495 13.8433 22.3564C14.0389 22.2106 14.2149 22.041 14.3672 21.8518" stroke="#AFB2B7" stroke-width="1.5" stroke-linecap="round" stroke-linejoin="round"/>
<circle cx="16.5" cy="4.5" r="3.5" fill="#4951FB" stroke="#FAFAFA" stroke-width="1.5"/>
</svg>
