<svg width="35" height="35" viewBox="0 0 35 35" fill="none" xmlns="http://www.w3.org/2000/svg">
<circle cx="17.5" cy="17.5" r="16.75" fill="#151619" stroke="#E2E3E4" stroke-width="1.5"/>
<path d="M18 14.5C16.645 14.5 15.5 15.645 15.5 17C15.5 18.355 16.645 19.5 18 19.5C19.355 19.5 20.5 18.355 20.5 17C20.5 15.645 19.355 14.5 18 14.5Z" fill="#4951FB"/>
<path d="M24.6667 11.1666H22.5117L20.2558 8.91079C20.1 8.75413 19.8883 8.66663 19.6667 8.66663H16.3333C16.1117 8.66663 15.9 8.75413 15.7442 8.91079L13.4883 11.1666H11.3333C10.4142 11.1666 9.66666 11.9141 9.66666 12.8333V22C9.66666 22.9191 10.4142 23.6666 11.3333 23.6666H24.6667C25.5858 23.6666 26.3333 22.9191 26.3333 22V12.8333C26.3333 11.9141 25.5858 11.1666 24.6667 11.1666ZM18 21.1666C15.7417 21.1666 13.8333 19.2583 13.8333 17C13.8333 14.7416 15.7417 12.8333 18 12.8333C20.2583 12.8333 22.1667 14.7416 22.1667 17C22.1667 19.2583 20.2583 21.1666 18 21.1666Z" fill="#4951FB"/>
</svg>
