<svg width="18" height="18" viewBox="0 0 18 18" fill="none" xmlns="http://www.w3.org/2000/svg">
<path fill-rule="evenodd" clip-rule="evenodd" d="M8.80082 16.3781C6.99198 15.2649 5.30924 13.9547 3.78272 12.471C2.70951 11.4025 1.89248 10.0998 1.39423 8.66282C0.497599 5.87525 1.54492 2.68402 4.47591 1.7396C6.01632 1.2437 7.69869 1.52713 8.99672 2.50123C10.2953 1.52831 11.977 1.24498 13.5175 1.7396C16.4485 2.68402 17.5034 5.87525 16.6068 8.66282C16.1085 10.0998 15.2915 11.4025 14.2183 12.471C12.6917 13.9547 11.009 15.2649 9.20016 16.3781L9.00426 16.5L8.80082 16.3781Z" stroke="#AFB2B7" stroke-width="1.5" stroke-linecap="round" stroke-linejoin="round"/>
<path d="M12.1161 4.87756C13.0038 5.16115 13.6346 5.95815 13.7134 6.89588" stroke="#AFB2B7" stroke-width="1.5" stroke-linecap="round" stroke-linejoin="round"/>
</svg>
