<svg width="20" height="20" viewBox="0 0 20 20" fill="none" xmlns="http://www.w3.org/2000/svg">
<g clip-path="url(#clip0_366_599)">
<path d="M10.0053 14.9639C11.2336 14.9639 12.3756 14.746 13.3782 14.387L11.6386 12.7075C11.1473 12.9511 10.5896 13.0857 10.0053 13.0857C7.93371 13.0857 6.29373 11.4639 6.28709 9.51518C6.28709 8.93826 6.42652 8.39338 6.67218 7.91261L4.40144 5.70748C2.30996 6.9703 1.00195 8.74595 1.00195 9.51518C1.00195 10.8101 4.75334 14.9639 10.0053 14.9639ZM15.795 13.2139C17.7338 11.9767 19.002 10.278 19.002 9.51518C19.002 8.2139 15.317 4.06645 10.0053 4.06645C8.87652 4.06645 7.81418 4.25235 6.85146 4.56004L8.57777 6.22671C9.01597 6.04722 9.494 5.94466 10.0053 5.94466C12.0569 5.94466 13.7168 7.51518 13.7168 9.51518C13.7168 10.0024 13.604 10.4703 13.4048 10.8806L15.795 13.2139ZM7.88727 9.36775C7.88727 10.4959 8.85 11.4062 10.0119 11.4062C10.1049 11.4062 10.1912 11.3998 10.2841 11.3934L7.90053 9.09211C7.89386 9.18185 7.88727 9.278 7.88727 9.36775ZM12.1167 9.38057C12.1167 8.25877 11.1805 7.34851 10.0053 7.34851C9.91894 7.34851 9.83266 7.35492 9.75298 7.36133L12.1034 9.63057C12.11 9.55364 12.1167 9.4639 12.1167 9.38057ZM15.1709 15.0665C15.3701 15.2652 15.6888 15.278 15.8946 15.0665C16.1138 14.855 16.0938 14.5665 15.8946 14.3678L4.79317 3.65619C4.59398 3.46389 4.26865 3.46389 4.06282 3.65619C3.87027 3.84209 3.87027 4.16902 4.06282 4.35491L15.1709 15.0665Z" fill="white" fill-opacity="0.85"/>
</g>
<defs>
<clipPath id="clip0_366_599">
<rect width="18" height="12" fill="white" transform="translate(1 3.51147)"/>
</clipPath>
</defs>
</svg>
