<svg width="20" height="20" viewBox="0 0 20 20" fill="none" xmlns="http://www.w3.org/2000/svg">
<path d="M10 10.1562C10.4315 10.1562 10.7812 9.80647 10.7812 9.375C10.7812 8.94353 10.4315 8.59375 10 8.59375C9.56853 8.59375 9.21875 8.94353 9.21875 9.375C9.21875 9.80647 9.56853 10.1562 10 10.1562Z" fill="#AFB2B7"/>
<path d="M6.79688 13.7491H13.2031C14.4955 13.7491 15.5469 12.6977 15.5469 11.4054V7.1866C15.5469 5.89426 14.4955 4.84285 13.2031 4.84285H13.0459V2.98414C13.0459 1.33867 11.6791 0 9.99906 0C8.31902 0 6.95219 1.33867 6.95219 2.98414V4.84285H6.79688C5.50453 4.84285 4.45312 5.89426 4.45312 7.1866V11.4054C4.45312 12.6977 5.50453 13.7491 6.79688 13.7491ZM8.51469 2.98414C8.51469 2.20023 9.18059 1.5625 9.99906 1.5625C10.8175 1.5625 11.4834 2.20023 11.4834 2.98414V4.84285H8.51469V2.98414ZM6.01562 7.1866C6.01562 6.75582 6.36609 6.40535 6.79688 6.40535H13.2031C13.6339 6.40535 13.9844 6.75582 13.9844 7.1866V11.4054C13.9844 11.8361 13.6339 12.1866 13.2031 12.1866H6.79688C6.36609 12.1866 6.01562 11.8361 6.01562 11.4054V7.1866Z" fill="#AFB2B7"/>
<path d="M8.4375 16.875C8.86897 16.875 9.21875 16.5252 9.21875 16.0938C9.21875 15.6623 8.86897 15.3125 8.4375 15.3125C8.00603 15.3125 7.65625 15.6623 7.65625 16.0938C7.65625 16.5252 8.00603 16.875 8.4375 16.875Z" fill="#AFB2B7"/>
<path d="M5.3125 16.875C5.74397 16.875 6.09375 16.5252 6.09375 16.0938C6.09375 15.6623 5.74397 15.3125 5.3125 15.3125C4.88103 15.3125 4.53125 15.6623 4.53125 16.0938C4.53125 16.5252 4.88103 16.875 5.3125 16.875Z" fill="#AFB2B7"/>
<path d="M17.6557 12.2859C17.2377 12.1784 16.8119 12.4299 16.7043 12.8478C16.5968 13.2656 16.8484 13.6916 17.2662 13.7991C17.9558 13.9766 18.4375 14.5989 18.4375 15.3125V16.875C18.4375 17.7365 17.7366 18.4375 16.875 18.4375H3.125C2.26344 18.4375 1.5625 17.7365 1.5625 16.875V15.3125C1.5625 14.6242 2.02281 14.0078 2.68191 13.8135C3.09578 13.6914 3.33234 13.257 3.21027 12.8432C3.08824 12.4293 2.65363 12.1928 2.23996 12.3148C1.60602 12.5017 1.03594 12.8958 0.634687 13.4245C0.219492 13.9714 0 14.6243 0 15.3125V16.875C0 18.5981 1.40188 20 3.125 20H16.875C18.5981 20 20 18.5981 20 16.875V15.3125C20 13.8858 19.036 12.6412 17.6557 12.2859Z" fill="#AFB2B7"/>
<path d="M11.5625 16.875C11.994 16.875 12.3438 16.5252 12.3438 16.0938C12.3438 15.6623 11.994 15.3125 11.5625 15.3125C11.131 15.3125 10.7812 15.6623 10.7812 16.0938C10.7812 16.5252 11.131 16.875 11.5625 16.875Z" fill="#AFB2B7"/>
<path d="M14.6875 16.875C15.119 16.875 15.4688 16.5252 15.4688 16.0938C15.4688 15.6623 15.119 15.3125 14.6875 15.3125C14.256 15.3125 13.9062 15.6623 13.9062 16.0938C13.9062 16.5252 14.256 16.875 14.6875 16.875Z" fill="#AFB2B7"/>
</svg>
