<svg width="14" height="14" viewBox="0 0 14 14" fill="none" xmlns="http://www.w3.org/2000/svg">
<g clip-path="url(#clip0_29_407)">
<path d="M8.23742 0.512561C8.92083 1.19598 8.92083 2.30402 8.23742 2.98743C7.55401 3.67085 6.44597 3.67085 5.76256 2.98743C5.07915 2.30402 5.07915 1.19598 5.76256 0.512561C6.44594 -0.170854 7.55398 -0.170854 8.23742 0.512561Z" fill="#838589"/>
<path d="M8.23742 5.76258C8.92083 6.44599 8.92083 7.55403 8.23742 8.23745C7.55401 8.92086 6.44597 8.92086 5.76256 8.23745C5.07915 7.55403 5.07915 6.44599 5.76256 5.76258C6.44594 5.07916 7.55398 5.07916 8.23742 5.76258Z" fill="#838589"/>
<path d="M8.23742 11.0125C8.92083 11.696 8.92083 12.804 8.23742 13.4874C7.55401 14.1708 6.44597 14.1708 5.76256 13.4874C5.07915 12.804 5.07915 11.696 5.76256 11.0125C6.44594 10.3291 7.55398 10.3291 8.23742 11.0125Z" fill="#838589"/>
</g>
<defs>
<clipPath id="clip0_29_407">
<rect width="14" height="14" fill="white"/>
</clipPath>
</defs>
</svg>
