<svg width="12" height="12" viewBox="0 0 12 12" fill="none" xmlns="http://www.w3.org/2000/svg">
<path d="M11.476 0.781084C10.9345 0.489507 10.3305 1.05183 9.97644 1.38507C9.16422 2.17649 8.47693 3.09288 7.7063 3.92595C6.85239 4.84234 6.06097 5.75873 5.18624 6.65432C4.68639 7.15417 4.14489 7.69567 3.81166 8.32048C3.06189 7.5915 2.41625 6.80007 1.58317 6.15447C0.979188 5.69628 -0.0205067 5.36305 0.000320301 6.46688C0.0419743 7.90397 1.31242 9.44516 2.24963 10.424C2.64535 10.8405 3.16602 11.2779 3.77 11.2987C4.49895 11.3404 5.24872 10.4657 5.68608 9.98663C6.45672 9.15355 7.08153 8.21631 7.78961 7.36244C8.706 6.23778 9.64321 5.13392 10.5388 3.98843C11.1011 3.28032 12.8714 1.53082 11.476 0.781084ZM0.916673 6.38357C0.895846 6.38357 0.875019 6.38357 0.833365 6.40436C0.750057 6.38357 0.687576 6.36271 0.604269 6.32105C0.666749 6.2794 0.770884 6.30023 0.916673 6.38357Z" fill="#0BBE1D"/>
</svg>
