<svg width="20" height="20" viewBox="0 0 20 20" fill="none" xmlns="http://www.w3.org/2000/svg">
<g clip-path="url(#clip0_1_638)">
<path d="M17.0711 2.92891C15.1823 1.0402 12.6711 0 10 0C7.32891 0 4.8177 1.0402 2.92891 2.92891C1.0402 4.8177 0 7.32891 0 10C0 12.6711 1.0402 15.1823 2.92891 17.0711C4.8177 18.9598 7.32891 20 10 20C12.6711 20 15.1823 18.9598 17.0711 17.0711C18.9598 15.1823 20 12.6711 20 10C20 7.32891 18.9598 4.8177 17.0711 2.92891ZM10 18.8281C5.13215 18.8281 1.17188 14.8679 1.17188 10C1.17188 5.13215 5.13215 1.17188 10 1.17188C14.8679 1.17188 18.8281 5.13215 18.8281 10C18.8281 14.8679 14.8679 18.8281 10 18.8281Z" fill="#AFB2B7"/>
<g clip-path="url(#clip1_1_638)">
<path d="M8.44406 15.6289L8.90573 15.3624L5.44064 9.36064L4.97897 9.62719C4.46929 9.92145 4.29446 10.5739 4.58872 11.0836L6.98763 15.2386C7.2819 15.7483 7.93438 15.9232 8.44406 15.6289ZM12.3657 5.36246L9.134 7.22828L8.75427 5.37431C8.60854 4.6613 7.80712 4.301 7.17694 4.66483L7.07306 4.72481L6.21418 8.56809L9.82907 14.8293L14.9074 11.8973L14.4223 6.88602C14.4037 6.82719 14.3745 6.73508 14.3552 6.67605L13.8221 5.75271C13.5279 5.24303 12.8754 5.0682 12.3657 5.36246Z" fill="#AFB2B7"/>
</g>
</g>
<defs>
<clipPath id="clip0_1_638">
<rect width="20" height="20" fill="white"/>
</clipPath>
<clipPath id="clip1_1_638">
<rect width="12.7942" height="12.7942" fill="white" transform="translate(0.999939 7) rotate(-30)"/>
</clipPath>
</defs>
</svg>
